<svg width="24" height="24" viewBox="0 0 24 24" fill="none" xmlns="http://www.w3.org/2000/svg">
<g clip-path="url(#clip0)">
<path d="M0.146484 11.6465L7.64648 4.1465C7.84181 3.95117 8.15822 3.95117 8.3535 4.1465C8.54883 4.34182 8.54883 4.65823 8.3535 4.85351L1.707 11.5H23.5C23.7764 11.5 24 11.7237 24 12C24 12.2764 23.7764 12.5 23.5 12.5H1.707L8.3535 19.1465C8.54883 19.3418 8.54883 19.6582 8.3535 19.8535C8.25586 19.9512 8.12789 20 7.99997 20C7.87205 20 7.74413 19.9512 7.64644 19.8535L0.146437 12.3535C-0.0488434 12.1582 -0.0488434 11.8418 0.146484 11.6465Z" fill="black"/>
</g>
<defs>
<clipPath id="clip0">
<rect width="24" height="24" fill="white" transform="matrix(-1 0 0 1 24 0)"/>
</clipPath>
</defs>
</svg>
