<svg width="15" height="15" viewBox="0 0 15 15" fill="none" xmlns="http://www.w3.org/2000/svg">
<path d="M13.7733 1.84102C12.9975 1.00708 11.9103 0.532578 10.7712 0.530819C9.63129 0.532138 8.54298 1.00639 7.76593 1.84048L7.5011 2.12033L7.23627 1.84048C5.69438 0.18099 3.09911 0.0856878 1.43965 1.62758C1.36611 1.69593 1.29509 1.76692 1.22674 1.84048C-0.408913 3.60474 -0.408913 6.33131 1.22674 8.09556L7.11191 14.3018C7.31552 14.5168 7.65483 14.526 7.86977 14.3224C7.87681 14.3157 7.88366 14.3089 7.89032 14.3018L13.7734 8.09556C15.4089 6.33149 15.4089 3.60508 13.7733 1.84102ZM12.9976 7.35736H12.9971L7.5011 13.1541L2.00461 7.35736C0.755067 6.00931 0.755067 3.9262 2.00461 2.57815C3.13935 1.34827 5.05629 1.27115 6.28617 2.40589C6.34588 2.46098 6.40333 2.51844 6.45843 2.57815L7.11191 3.26757C7.32727 3.48154 7.67496 3.48154 7.89032 3.26757L8.5438 2.57868C9.67854 1.3488 11.5955 1.27169 12.8254 2.40642C12.8851 2.46152 12.9425 2.51897 12.9976 2.57868C14.258 3.92887 14.2673 6.01578 12.9976 7.35736Z" fill="#344DCE"/>
</svg>
