<svg width="15" height="15" viewBox="0 0 15 15" fill="none" xmlns="http://www.w3.org/2000/svg">
<path d="M13.7733 1.84102C12.9975 1.00708 11.9103 0.532578 10.7712 0.530819C9.63129 0.532138 8.54298 1.00639 7.76593 1.84048L7.5011 2.12033L7.23627 1.84048C5.69438 0.18099 3.09911 0.0856878 1.43965 1.62758C1.36611 1.69593 1.29509 1.76692 1.22674 1.84048C-0.408913 3.60474 -0.408913 6.33131 1.22674 8.09556L7.11191 14.3018C7.31552 14.5168 7.65483 14.526 7.86977 14.3224C7.87681 14.3157 7.88366 14.3089 7.89032 14.3018L13.7734 8.09556C15.4089 6.33149 15.4089 3.60508 13.7733 1.84102ZM12.9976 7.35736H12.9971L7.5011 13.1541L2.00461 7.35736C0.755067 6.00931 0.755067 3.9262 2.00461 2.57815C3.13935 1.34827 5.05629 1.27115 6.28617 2.40589C6.34588 2.46098 6.40333 2.51844 6.45843 2.57815L7.11191 3.26757C7.32727 3.48154 7.67496 3.48154 7.89032 3.26757L8.5438 2.57868C9.67854 1.3488 11.5955 1.27169 12.8254 2.40642C12.8851 2.46152 12.9425 2.51897 12.9976 2.57868C14.258 3.92887 14.2673 6.01578 12.9976 7.35736Z" fill="#344DCE"/>
<path d="M9.85466 7.13745C9.20801 8.17209 8.65285 8.05335 7.57877 7.93401C7.07413 7.87794 6.57514 7.07726 6.07415 6.88457C5.74602 6.75837 5.46614 6.54197 5.13851 6.44836C4.94017 6.39169 4.53828 6.37678 4.36724 6.25238C3.96879 5.9626 3.17104 5.77191 2.6856 5.77191" stroke="#344DCE" stroke-width="3" stroke-linecap="round"/>
<path d="M4.96149 8.84435C4.38576 8.82995 3.62179 8.44082 3.36837 7.93399" stroke="#344DCE" stroke-width="3" stroke-linecap="round"/>
<path d="M3.59596 7.59261C3.27558 7.26222 2.93122 6.81047 2.62871 6.56846C2.32228 6.32331 2.56279 5.87442 2.34422 5.6012C2.04472 5.22683 2.09363 3.7582 2.4833 3.4075C2.97842 2.96189 4.03969 3.15462 4.67069 3.15462C5.08377 3.15462 5.20863 3.27532 5.47989 3.54658C5.61837 3.68506 6.17959 3.91878 6.20691 4.0144C6.26414 4.2147 6.35366 5.66913 6.32703 4.95005C6.31081 4.51204 6.02098 4.00224 5.84656 3.6098C5.71599 3.31601 5.27245 3.07741 4.96149 3.04083C4.80097 3.02194 4.69695 2.79081 4.50632 2.81324C4.27111 2.84091 4.39252 4.17676 4.39252 4.38107C4.39252 5.32896 4.30382 6.36902 4.85402 7.19433C5.03715 7.46902 5.55594 8.0516 5.63794 8.3386C5.71331 8.60238 5.69731 9.11438 5.92875 9.29953C6.29644 9.59368 6.44073 10.3461 6.8075 10.7536C6.95049 10.9124 7.10221 11.3478 7.29428 11.3478C7.58867 11.3478 7.34402 11.6303 7.52819 11.6829C7.78068 11.755 7.95489 11.355 8.03395 11.1771C8.18086 10.8466 8.44713 10.5879 8.48913 10.2099C8.51615 9.96663 8.96768 9.22486 9.17189 9.09723C9.73175 8.74732 10.0716 7.92958 10.6512 7.56732C11.1928 7.22881 11.2505 6.38489 11.7323 5.99949C11.9734 5.80656 12.2817 5.32814 12.3645 5.03855C12.3855 4.9649 12.513 5.72956 12.4656 5.94259C12.4305 6.10064 12.1546 7.00055 12.1306 6.56846C12.1053 6.11366 11.7793 5.8584 11.4478 5.54431C10.7127 4.8479 9.65849 4.78893 8.83051 5.20292" stroke="#344DCE" stroke-width="3" stroke-linecap="round"/>
<path d="M8.48913 7.13743C8.08755 6.84538 7.35118 6.63468 7.35118 6.05638C7.35118 5.77959 8.15085 5.05205 8.35004 5.43051C8.7197 6.13285 8.60292 7.0004 8.60292 7.7633C8.60292 8.20028 8.80501 8.63844 8.83051 9.07194C8.85377 9.4673 9.04737 9.75471 9.45638 9.75471C9.9643 9.75471 10.04 9.42513 10.3351 9.09723C10.5414 8.86798 10.7905 8.49929 10.8725 8.21216C10.9984 7.77141 11.2023 7.6195 11.4478 7.25123" stroke="#344DCE" stroke-width="3" stroke-linecap="round"/>
<path d="M11.5616 7.25122C11.6945 6.90241 11.8349 5.90318 12.1053 5.63281C12.427 5.31108 12.3893 5.09106 12.4783 4.69084C12.5474 4.37956 12.7541 3.79802 12.4466 3.52129C12.2988 3.38818 11.7155 3.04082 11.5047 3.04082C10.9537 3.04082 9.57859 2.79849 9.19718 3.1799C8.80934 3.56774 8.29508 4.162 7.80636 4.40636" stroke="#344DCE" stroke-width="3" stroke-linecap="round"/>
</svg>
