<svg width="160" height="50" viewBox="0 0 160 50" fill="none" xmlns="http://www.w3.org/2000/svg">
<path d="M9.375 45.3125C9.80647 45.3125 10.1562 44.9627 10.1562 44.5312C10.1562 44.0998 9.80647 43.75 9.375 43.75C8.94353 43.75 8.59375 44.0998 8.59375 44.5312C8.59375 44.9627 8.94353 45.3125 9.375 45.3125Z" fill="black"/>
<path d="M25.7812 45.3125C26.2127 45.3125 26.5625 44.9627 26.5625 44.5312C26.5625 44.0998 26.2127 43.75 25.7812 43.75C25.3498 43.75 25 44.0998 25 44.5312C25 44.9627 25.3498 45.3125 25.7812 45.3125Z" fill="black"/>
<path d="M28.9062 26.5625H30.4688V28.125H28.9062V26.5625Z" fill="black"/>
<path d="M32.0312 26.5625H33.5938V28.125H32.0312V26.5625Z" fill="black"/>
<path d="M28.9062 29.6875H30.4688V31.25H28.9062V29.6875Z" fill="black"/>
<path d="M39.8438 26.5625H41.4062V28.125H39.8438V26.5625Z" fill="black"/>
<path d="M42.9688 26.5625H44.5312V28.125H42.9688V26.5625Z" fill="black"/>
<path d="M42.9688 29.6875H44.5312V31.25H42.9688V29.6875Z" fill="black"/>
<path d="M39.8438 29.6875H41.4062V31.25H39.8438V29.6875Z" fill="black"/>
<path d="M42.9688 32.8125H44.5312V34.375H42.9688V32.8125Z" fill="black"/>
<path d="M39.8438 32.8125H41.4062V34.375H39.8438V32.8125Z" fill="black"/>
<path d="M42.9688 35.9375H44.5312V37.5H42.9688V35.9375Z" fill="black"/>
<path d="M39.8438 35.9375H41.4062V37.5H39.8438V35.9375Z" fill="black"/>
<path d="M42.9688 39.0625H44.5312V40.625H42.9688V39.0625Z" fill="black"/>
<path d="M39.8438 39.0625H41.4062V40.625H39.8438V39.0625Z" fill="black"/>
<path d="M42.9688 42.1875H44.5312V43.75H42.9688V42.1875Z" fill="black"/>
<path d="M39.8438 42.1875H41.4062V43.75H39.8438V42.1875Z" fill="black"/>
<path d="M32.0312 29.6875H33.5938V31.25H32.0312V29.6875Z" fill="black"/>
<path d="M28.9062 32.8125H30.4688V34.375H28.9062V32.8125Z" fill="black"/>
<path d="M32.0312 32.8125H33.5938V34.375H32.0312V32.8125Z" fill="black"/>
<path d="M32.0312 18.75H33.5938V20.3125H32.0312V18.75Z" fill="black"/>
<path d="M39.8438 18.75H41.4062V20.3125H39.8438V18.75Z" fill="black"/>
<path d="M34.375 12.5H35.9375V14.0625H34.375V12.5Z" fill="black"/>
<path d="M37.5 12.5H39.0625V14.0625H37.5V12.5Z" fill="black"/>
<path d="M5.46875 25H7.8125V26.5625H5.46875V25Z" fill="black"/>
<path d="M9.375 25H11.7188V26.5625H9.375V25Z" fill="black"/>
<path d="M13.2812 25H15.625V26.5625H13.2812V25Z" fill="black"/>
<path d="M5.46875 28.125H7.8125V29.6875H5.46875V28.125Z" fill="black"/>
<path d="M9.375 28.125H11.7188V29.6875H9.375V28.125Z" fill="black"/>
<path d="M4.6875 15.625H7.8125V17.1875H4.6875V15.625Z" fill="black"/>
<path d="M9.375 15.625H12.5V17.1875H9.375V15.625Z" fill="black"/>
<path d="M4.6875 18.75H7.8125V20.3125H4.6875V18.75Z" fill="black"/>
<path d="M9.375 18.75H12.5V20.3125H9.375V18.75Z" fill="black"/>
<path d="M13.2812 28.125H15.625V29.6875H13.2812V28.125Z" fill="black"/>
<path d="M17.1875 25H19.5312V26.5625H17.1875V25Z" fill="black"/>
<path d="M17.1875 28.125H19.5312V29.6875H17.1875V28.125Z" fill="black"/>
<path d="M7.03125 6.25H8.59375V7.8125H7.03125V6.25Z" fill="black"/>
<path d="M7.03125 9.375H8.59375V10.9375H7.03125V9.375Z" fill="black"/>
<path d="M17.1875 18.75H18.75V20.3125H17.1875V18.75Z" fill="black"/>
<path d="M14.0625 9.375H15.625V10.9375H14.0625V9.375Z" fill="black"/>
<path d="M47.6562 21.875H45.3125V16.4062C45.3125 16.199 45.2302 16.0003 45.0837 15.8538C44.9372 15.7073 44.7384 15.625 44.5312 15.625H42.9688V10.1562C42.9687 9.94905 42.8864 9.75034 42.7399 9.60383C42.5934 9.45731 42.3947 9.375 42.1875 9.375H40.2618L39.0625 7.57599V5.46875C39.062 5.05449 38.8973 4.65734 38.6043 4.36442C38.3114 4.0715 37.9143 3.90672 37.5 3.90625V0.78125H35.9375V3.90625C35.5232 3.90672 35.1261 4.0715 34.8332 4.36442C34.5402 4.65734 34.3755 5.05449 34.375 5.46875V7.57599L33.1757 9.375H31.25C31.0428 9.375 30.8441 9.45731 30.6976 9.60383C30.5511 9.75034 30.4688 9.94905 30.4688 10.1562V15.625H28.9062C28.6991 15.625 28.5003 15.7073 28.3538 15.8538C28.2073 16.0003 28.125 16.199 28.125 16.4062V21.875H25.7812C25.5741 21.875 25.3753 21.9573 25.2288 22.1038C25.0823 22.2503 25 22.4491 25 22.6562V34.5931L24.5651 34.4481L23.4375 33.6965V22.6562C23.4375 22.4491 23.3552 22.2503 23.2087 22.1038C23.0622 21.9573 22.8634 21.875 22.6562 21.875H21.875V16.4062C21.875 16.199 21.7927 16.0003 21.6462 15.8538C21.4997 15.7073 21.3009 15.625 21.0938 15.625H18.75V7.03125C18.75 6.82405 18.6677 6.62534 18.5212 6.47883C18.3747 6.33231 18.1759 6.25 17.9688 6.25H12.5V3.90625C12.5 3.69905 12.4177 3.50034 12.2712 3.35383C12.1247 3.20731 11.926 3.125 11.7188 3.125H3.90625C3.69905 3.125 3.50034 3.20731 3.35383 3.35383C3.20731 3.50034 3.125 3.69905 3.125 3.90625V12.5H2.34375C2.13655 12.5 1.93784 12.5823 1.79133 12.7288C1.64481 12.8753 1.5625 13.074 1.5625 13.2812V47.6562C1.5625 47.8634 1.64481 48.0622 1.79133 48.2087C1.93784 48.3552 2.13655 48.4375 2.34375 48.4375H47.6562C47.8634 48.4375 48.0622 48.3552 48.2087 48.2087C48.3552 48.0622 48.4375 47.8634 48.4375 47.6562V22.6562C48.4375 22.4491 48.3552 22.2503 48.2087 22.1038C48.0622 21.9573 47.8634 21.875 47.6562 21.875ZM43.75 17.1875V21.875H37.5V17.1875H43.75ZM35.8063 8.24585C35.8918 8.11752 35.9375 7.96674 35.9375 7.8125V5.46875H37.5V7.8125C37.5 7.96674 37.5457 8.11752 37.6312 8.24585L38.384 9.375H35.0535L35.8063 8.24585ZM22.9925 35.2777L21.5514 36.7188H16.4062V32.8125H19.2947L22.9925 35.2777ZM20.3125 17.1875V21.875H15.625V17.1875H20.3125ZM12.5 7.8125H17.1875V15.625H15.625V13.2812C15.625 13.074 15.5427 12.8753 15.3962 12.7288C15.2497 12.5823 15.051 12.5 14.8438 12.5H12.5V7.8125ZM4.6875 4.6875H10.9375V12.5H4.6875V4.6875ZM3.125 14.0625H14.0625V21.875H3.125V14.0625ZM3.125 23.4375H21.875V32.6548L19.9646 31.3812C19.8363 31.2957 19.6855 31.25 19.5312 31.25H10.1562C10.0147 31.25 9.87575 31.2885 9.75432 31.3613L7.8125 32.5264V31.25H5.46875V32.8125H7.33564L3.125 35.3389V23.4375ZM14.8438 32.8125V36.7188H11.1741L7.71053 34.4098L10.3726 32.8125H14.8438ZM3.125 46.875V43.75L4.06251 45C4.13527 45.097 4.22963 45.1758 4.33811 45.23C4.44659 45.2843 4.56621 45.3125 4.6875 45.3125H5.54736C5.66319 45.8793 5.90396 46.413 6.25214 46.875H3.125ZM9.375 46.875C8.91145 46.875 8.45831 46.7375 8.07288 46.48C7.68745 46.2225 7.38705 45.8564 7.20966 45.4282C7.03226 44.9999 6.98585 44.5287 7.07628 44.074C7.16672 43.6194 7.38994 43.2017 7.71772 42.874C8.0455 42.5462 8.46311 42.323 8.91776 42.2325C9.3724 42.1421 9.84365 42.1885 10.2719 42.3659C10.7002 42.5433 11.0662 42.8437 11.3238 43.2291C11.5813 43.6146 11.7188 44.0677 11.7188 44.5312C11.718 45.1526 11.4709 45.7484 11.0315 46.1877C10.5921 46.6271 9.99638 46.8743 9.375 46.875ZM9.375 40.625C8.4749 40.6262 7.60273 40.9376 6.9055 41.5069C6.20826 42.0761 5.7286 42.8683 5.54736 43.75H5.07812L3.125 41.1458V39.8438H5.46875V38.2812H3.125V37.1611L6.22801 35.2993L10.5042 38.15C10.6325 38.2356 10.7833 38.2812 10.9375 38.2812H14.8438V40.625C14.8437 40.7792 14.8894 40.93 14.975 41.0583L16.4062 43.2053V43.75H13.2026C13.0214 42.8683 12.5417 42.0761 11.8445 41.5069C11.1473 40.9376 10.2751 40.6262 9.375 40.625ZM12.4979 46.875C12.846 46.413 13.0868 45.8793 13.2026 45.3125H21.9536C22.0694 45.8793 22.3102 46.413 22.6584 46.875H12.4979ZM25.7812 46.875C25.3177 46.875 24.8646 46.7375 24.4791 46.48C24.0937 46.2225 23.7933 45.8564 23.6159 45.4282C23.4385 44.9999 23.3921 44.5287 23.4825 44.074C23.573 43.6194 23.7962 43.2017 24.124 42.874C24.4517 42.5462 24.8694 42.323 25.324 42.2325C25.7787 42.1421 26.2499 42.1885 26.6782 42.3659C27.1064 42.5433 27.4725 42.8437 27.73 43.2291C27.9875 43.6146 28.125 44.0677 28.125 44.5312C28.1243 45.1526 27.8771 45.7484 27.4377 46.1877C26.9984 46.6271 26.4026 46.8743 25.7812 46.875ZM25.7812 40.625C24.8812 40.6262 24.009 40.9376 23.3117 41.5069C22.6145 42.0761 22.1348 42.8683 21.9536 43.75H17.9688V42.9688C17.9688 42.8145 17.9231 42.6637 17.8375 42.5354L16.4062 40.3885V38.2812H21.875C22.0822 38.2813 22.2809 38.199 22.4274 38.0525L24.4298 36.0501L31.1233 38.2812H28.9062V39.8438H32.8125V42.5507L31.0134 43.75H29.6089C29.4277 42.8683 28.948 42.0761 28.2508 41.5069C27.5535 40.9376 26.6813 40.6262 25.7812 40.625ZM35.9375 46.875H28.9041C29.2523 46.4131 29.4931 45.8793 29.6089 45.3125H31.25C31.4042 45.3125 31.555 45.2668 31.6833 45.1813L34.0271 43.6188C34.1341 43.5474 34.2219 43.4508 34.2826 43.3374C34.3432 43.224 34.375 43.0974 34.375 42.9688V38.2812C34.375 38.1173 34.3234 37.9575 34.2275 37.8244C34.1317 37.6914 33.9964 37.5919 33.8408 37.5401L26.5625 35.114V23.4375H35.9375V46.875ZM35.9375 21.875H29.6875V17.1875H35.9375V21.875ZM32.0312 15.625V10.9375H41.4062V15.625H32.0312ZM46.875 46.875H37.5V23.4375H46.875V46.875Z" fill="black"/>
<path d="M73.8799 26.3154H71.7793V31H69.1426V18.2031H73.8975C75.4092 18.2031 76.5752 18.54 77.3955 19.2139C78.2158 19.8877 78.626 20.8398 78.626 22.0703C78.626 22.9434 78.4355 23.6729 78.0547 24.2588C77.6797 24.8389 77.1084 25.3018 76.3408 25.6475L79.1094 30.877V31H76.2793L73.8799 26.3154ZM71.7793 24.1797H73.9062C74.5684 24.1797 75.0811 24.0127 75.4443 23.6787C75.8076 23.3389 75.9893 22.873 75.9893 22.2812C75.9893 21.6777 75.8164 21.2031 75.4707 20.8574C75.1309 20.5117 74.6064 20.3389 73.8975 20.3389H71.7793V24.1797ZM84.8486 31.1758C83.4541 31.1758 82.3174 30.748 81.4385 29.8926C80.5654 29.0371 80.1289 27.8975 80.1289 26.4736V26.2275C80.1289 25.2725 80.3135 24.4199 80.6826 23.6699C81.0518 22.9141 81.5732 22.334 82.2471 21.9297C82.9268 21.5195 83.7002 21.3145 84.5674 21.3145C85.8682 21.3145 86.8906 21.7246 87.6348 22.5449C88.3848 23.3652 88.7598 24.5283 88.7598 26.0342V27.0713H82.7041C82.7861 27.6924 83.0322 28.1904 83.4424 28.5654C83.8584 28.9404 84.3828 29.1279 85.0156 29.1279C85.9941 29.1279 86.7588 28.7734 87.3096 28.0645L88.5576 29.4619C88.1768 30.001 87.6611 30.4229 87.0107 30.7275C86.3604 31.0264 85.6396 31.1758 84.8486 31.1758ZM84.5586 23.3711C84.0547 23.3711 83.6445 23.541 83.3281 23.8809C83.0176 24.2207 82.8184 24.707 82.7305 25.3398H86.2637V25.1377C86.252 24.5752 86.0996 24.1416 85.8066 23.8369C85.5137 23.5264 85.0977 23.3711 84.5586 23.3711ZM95.7207 31C95.6035 30.7715 95.5186 30.4873 95.4658 30.1475C94.8506 30.833 94.0508 31.1758 93.0664 31.1758C92.1348 31.1758 91.3613 30.9062 90.7461 30.3672C90.1367 29.8281 89.832 29.1484 89.832 28.3281C89.832 27.3203 90.2041 26.5469 90.9482 26.0078C91.6982 25.4688 92.7793 25.1963 94.1914 25.1904H95.3604V24.6455C95.3604 24.2061 95.2461 23.8545 95.0176 23.5908C94.7949 23.3271 94.4404 23.1953 93.9541 23.1953C93.5264 23.1953 93.1895 23.2979 92.9434 23.5029C92.7031 23.708 92.583 23.9893 92.583 24.3467H90.043C90.043 23.7959 90.2129 23.2861 90.5527 22.8174C90.8926 22.3486 91.373 21.9824 91.9941 21.7188C92.6152 21.4492 93.3125 21.3145 94.0859 21.3145C95.2578 21.3145 96.1865 21.6104 96.8721 22.2021C97.5635 22.7881 97.9092 23.6143 97.9092 24.6807V28.8027C97.915 29.7051 98.041 30.3877 98.2871 30.8506V31H95.7207ZM93.6201 29.2334C93.9951 29.2334 94.3408 29.1514 94.6572 28.9873C94.9736 28.8174 95.208 28.5918 95.3604 28.3105V26.6758H94.4111C93.1396 26.6758 92.4629 27.1152 92.3809 27.9941L92.3721 28.1436C92.3721 28.46 92.4834 28.7207 92.7061 28.9258C92.9287 29.1309 93.2334 29.2334 93.6201 29.2334ZM102.541 31H99.9922V17.5H102.541V31Z" fill="#344DCE"/>
<path d="M116.99 25.4541H111.928V28.8818H117.869V31H109.291V18.2031H117.852V20.3389H111.928V23.3887H116.99V25.4541ZM124.399 28.3721C124.399 28.0615 124.244 27.8184 123.934 27.6426C123.629 27.4609 123.137 27.2998 122.457 27.1592C120.195 26.6846 119.064 25.7236 119.064 24.2764C119.064 23.4326 119.413 22.7295 120.11 22.167C120.813 21.5986 121.73 21.3145 122.861 21.3145C124.068 21.3145 125.032 21.5986 125.753 22.167C126.479 22.7354 126.843 23.4736 126.843 24.3818H124.303C124.303 24.0186 124.186 23.7197 123.951 23.4854C123.717 23.2451 123.351 23.125 122.853 23.125C122.425 23.125 122.094 23.2217 121.859 23.415C121.625 23.6084 121.508 23.8545 121.508 24.1533C121.508 24.4346 121.64 24.6631 121.903 24.8389C122.173 25.0088 122.624 25.1582 123.257 25.2871C123.89 25.4102 124.423 25.5508 124.856 25.709C126.198 26.2012 126.869 27.0537 126.869 28.2666C126.869 29.1338 126.497 29.8369 125.753 30.376C125.009 30.9092 124.048 31.1758 122.87 31.1758C122.073 31.1758 121.364 31.0352 120.743 30.7539C120.128 30.4668 119.645 30.0771 119.293 29.585C118.941 29.0869 118.766 28.5508 118.766 27.9766H121.174C121.197 28.4277 121.364 28.7734 121.675 29.0137C121.985 29.2539 122.401 29.374 122.923 29.374C123.409 29.374 123.775 29.2832 124.021 29.1016C124.273 28.9141 124.399 28.6709 124.399 28.3721ZM131.554 19.1523V21.4902H133.18V23.3535H131.554V28.0996C131.554 28.4512 131.621 28.7031 131.756 28.8555C131.891 29.0078 132.148 29.084 132.529 29.084C132.811 29.084 133.06 29.0635 133.276 29.0225V30.9473C132.778 31.0996 132.266 31.1758 131.738 31.1758C129.957 31.1758 129.049 30.2764 129.014 28.4775V23.3535H127.625V21.4902H129.014V19.1523H131.554ZM140.105 31C139.988 30.7715 139.903 30.4873 139.851 30.1475C139.235 30.833 138.436 31.1758 137.451 31.1758C136.52 31.1758 135.746 30.9062 135.131 30.3672C134.521 29.8281 134.217 29.1484 134.217 28.3281C134.217 27.3203 134.589 26.5469 135.333 26.0078C136.083 25.4688 137.164 25.1963 138.576 25.1904H139.745V24.6455C139.745 24.2061 139.631 23.8545 139.402 23.5908C139.18 23.3271 138.825 23.1953 138.339 23.1953C137.911 23.1953 137.574 23.2979 137.328 23.5029C137.088 23.708 136.968 23.9893 136.968 24.3467H134.428C134.428 23.7959 134.598 23.2861 134.938 22.8174C135.277 22.3486 135.758 21.9824 136.379 21.7188C137 21.4492 137.697 21.3145 138.471 21.3145C139.643 21.3145 140.571 21.6104 141.257 22.2021C141.948 22.7881 142.294 23.6143 142.294 24.6807V28.8027C142.3 29.7051 142.426 30.3877 142.672 30.8506V31H140.105ZM138.005 29.2334C138.38 29.2334 138.726 29.1514 139.042 28.9873C139.358 28.8174 139.593 28.5918 139.745 28.3105V26.6758H138.796C137.524 26.6758 136.848 27.1152 136.766 27.9941L136.757 28.1436C136.757 28.46 136.868 28.7207 137.091 28.9258C137.313 29.1309 137.618 29.2334 138.005 29.2334ZM147.286 19.1523V21.4902H148.912V23.3535H147.286V28.0996C147.286 28.4512 147.354 28.7031 147.488 28.8555C147.623 29.0078 147.881 29.084 148.262 29.084C148.543 29.084 148.792 29.0635 149.009 29.0225V30.9473C148.511 31.0996 147.998 31.1758 147.471 31.1758C145.689 31.1758 144.781 30.2764 144.746 28.4775V23.3535H143.357V21.4902H144.746V19.1523H147.286ZM154.704 31.1758C153.31 31.1758 152.173 30.748 151.294 29.8926C150.421 29.0371 149.984 27.8975 149.984 26.4736V26.2275C149.984 25.2725 150.169 24.4199 150.538 23.6699C150.907 22.9141 151.429 22.334 152.103 21.9297C152.782 21.5195 153.556 21.3145 154.423 21.3145C155.724 21.3145 156.746 21.7246 157.49 22.5449C158.24 23.3652 158.615 24.5283 158.615 26.0342V27.0713H152.56C152.642 27.6924 152.888 28.1904 153.298 28.5654C153.714 28.9404 154.238 29.1279 154.871 29.1279C155.85 29.1279 156.614 28.7734 157.165 28.0645L158.413 29.4619C158.032 30.001 157.517 30.4229 156.866 30.7275C156.216 31.0264 155.495 31.1758 154.704 31.1758ZM154.414 23.3711C153.91 23.3711 153.5 23.541 153.184 23.8809C152.873 24.2207 152.674 24.707 152.586 25.3398H156.119V25.1377C156.107 24.5752 155.955 24.1416 155.662 23.8369C155.369 23.5264 154.953 23.3711 154.414 23.3711Z" fill="black"/>
</svg>
